<svg xmlns="http://www.w3.org/2000/svg" width="205" height="205" viewBox="0 0 205 205">
  <g id="Group_62" data-name="Group 62" transform="translate(-329 -1726)">
    <rect id="Rectangle_105" data-name="Rectangle 105" width="193" height="193" transform="translate(335 1732)" fill="none" stroke="#366ce8" stroke-width="12"/>
    <g id="Group_45" data-name="Group 45" transform="translate(488.85 1781) rotate(90)">
      <g id="Group_41" data-name="Group 41" transform="translate(0 114.849) rotate(-90)">
        <g id="right-arrow" transform="translate(114.849 95.546) rotate(180)">
          <g id="Group_16" data-name="Group 16">
            <path id="Path_127" data-name="Path 127" d="M113.014,43.311,71.537,1.834a6.3,6.3,0,0,0-8.89,0L58.882,5.6a6.239,6.239,0,0,0-1.835,4.445,6.362,6.362,0,0,0,1.835,4.5l24.2,24.25H6.2A6.134,6.134,0,0,0,0,44.972V50.3a6.37,6.37,0,0,0,6.2,6.454H83.353L58.883,81.136a6.225,6.225,0,0,0,0,8.827l3.766,3.755a6.305,6.305,0,0,0,8.89-.008l41.476-41.476a6.339,6.339,0,0,0,0-8.922Z" fill="#3972f5"/>
          </g>
        </g>
      </g>
    </g>
  </g>
</svg>
