<svg xmlns="http://www.w3.org/2000/svg" width="1906" height="1007" viewBox="0 0 1906 1007">
  <g id="Group_234" data-name="Group 234" transform="translate(-14 -6)" opacity="0.165">
    <text id="_" data-name="*" transform="translate(131 841)" fill="#1139e3" font-size="32" font-family="RealHeadPro-Medium, Real Head Pro" font-weight="500" letter-spacing="-0.008em"><tspan x="-7.504" y="33">*</tspan></text>
    <text id="_2" data-name="*" transform="translate(809 764)" fill="#1139e3" font-size="32" font-family="RealHeadPro-Medium, Real Head Pro" font-weight="500" letter-spacing="-0.008em"><tspan x="-7.504" y="33">*</tspan></text>
    <text id="_3" data-name="*" transform="translate(1062 125)" fill="#1139e3" font-size="32" font-family="RealHeadPro-Medium, Real Head Pro" font-weight="500" letter-spacing="-0.008em"><tspan x="-7.504" y="33">*</tspan></text>
    <text id="_4" data-name="*" transform="translate(1690 491)" fill="#1139e3" font-size="32" font-family="ProximaNova-Extrabld, Proxima Nova" letter-spacing="-0.008em"><tspan x="-5.712" y="29">*</tspan></text>
    <text id="_5" data-name="*" transform="translate(1498 563)" fill="#1139e3" font-size="32" font-family="ProximaNova-Extrabld, Proxima Nova" letter-spacing="-0.008em"><tspan x="-5.712" y="29">*</tspan></text>
    <text id="_6" data-name="*" transform="translate(1574 125)" fill="#1139e3" font-size="32" font-family="ProximaNova-Extrabld, Proxima Nova" letter-spacing="-0.008em"><tspan x="-5.712" y="29">*</tspan></text>
    <text id="_7" data-name="*" transform="translate(1515 344)" fill="#1139e3" font-size="32" font-family="ProximaNova-Extrabld, Proxima Nova" letter-spacing="-0.008em"><tspan x="-5.712" y="29">*</tspan></text>
    <text id="_8" data-name="*" transform="translate(1397 841)" fill="#1139e3" font-size="32" font-family="ProximaNova-Extrabld, Proxima Nova" letter-spacing="-0.008em"><tspan x="-5.712" y="29">*</tspan></text>
    <text id="_9" data-name="*" transform="translate(1397 6)" fill="#1139e3" font-size="32" font-family="ProximaNova-Extrabld, Proxima Nova" letter-spacing="-0.008em"><tspan x="-5.712" y="29">*</tspan></text>
    <text id="_10" data-name="*" transform="translate(14 969)" fill="#1139e3" font-size="32" font-family="RealHeadPro-Medium, Real Head Pro" font-weight="500" letter-spacing="-0.008em" opacity="0.457"><tspan x="-7.504" y="33">*</tspan></text>
    <text id="_11" data-name="*" transform="translate(1819 742)" fill="#1139e3" font-size="32" font-family="RealHeadPro-Medium, Real Head Pro" font-weight="500" letter-spacing="-0.008em"><tspan x="-7.504" y="33">*</tspan></text>
    <text id="_12" data-name="*" transform="translate(1046 601)" fill="#1139e3" font-size="32" font-family="RealHeadPro-Medium, Real Head Pro" font-weight="500" letter-spacing="-0.008em"><tspan x="-7.504" y="33">*</tspan></text>
    <text id="_13" data-name="*" transform="translate(1589 865)" fill="#1139e3" font-size="32" font-family="RealHeadPro-Medium, Real Head Pro" font-weight="500" letter-spacing="-0.008em"><tspan x="-7.504" y="33">*</tspan></text>
    <text id="_14" data-name="*" transform="translate(253 136)" fill="#1139e3" font-size="32" font-family="ProximaNova-Extrabld, Proxima Nova" letter-spacing="-0.008em"><tspan x="-5.712" y="29">*</tspan></text>
    <text id="_15" data-name="*" transform="translate(438 282)" fill="#1139e3" font-size="32" font-family="ProximaNova-Extrabld, Proxima Nova" letter-spacing="-0.008em"><tspan x="-5.712" y="29">*</tspan></text>
    <text id="_16" data-name="*" transform="translate(403 673)" fill="#1139e3" font-size="32" font-family="ProximaNova-Extrabld, Proxima Nova" letter-spacing="-0.008em"><tspan x="-5.712" y="29">*</tspan></text>
    <text id="_17" data-name="*" transform="translate(163 344)" fill="#1139e3" font-size="32" font-family="ProximaNova-Extrabld, Proxima Nova" letter-spacing="-0.008em"><tspan x="-5.712" y="29">*</tspan></text>
    <text id="_18" data-name="*" transform="translate(1819 282)" fill="#1139e3" font-size="32" font-family="ProximaNova-Extrabld, Proxima Nova" letter-spacing="-0.008em"><tspan x="-5.712" y="29">*</tspan></text>
    <text id="_19" data-name="*" transform="translate(191 530)" fill="#1139e3" font-size="32" font-family="ProximaNova-Extrabld, Proxima Nova" letter-spacing="-0.008em"><tspan x="-5.712" y="29">*</tspan></text>
    <g id="saturn" transform="translate(354.5 672.963)" opacity="0.529">
      <g id="Group_97" data-name="Group 97">
        <path id="Path_178" data-name="Path 178" d="M2.295,4.856c3.423-3.672,10.208-3.174,18.362.5A66.913,66.913,0,0,1,27.5,8.964a29.008,29.008,0,0,1,6.6-.809A27.9,27.9,0,0,1,61.3,42.2a53.153,53.153,0,0,1,3.735,6.784c3.8,8.092,4.419,14.876.934,18.424-3.486,3.61-10.332,3.112-18.424-.56a60.363,60.363,0,0,1-6.784-3.61,29.008,29.008,0,0,1-6.6.809,27.847,27.847,0,0,1-27.2-33.985A53.155,53.155,0,0,1,3.228,23.28C-.568,15.188-1.191,8.4,2.295,4.856Zm49.67,13.382A25.267,25.267,0,0,0,34.1,10.831a25.009,25.009,0,0,0-17.864,7.407,23.255,23.255,0,0,0-3.984,5.228c.249.685.56,1.369.871,2.054C15.739,31,20.47,37.471,26.694,43.633c6.224,6.1,12.822,10.768,18.362,13.258.747.311,1.432.622,2.116.871A25.147,25.147,0,0,0,59.371,36.1,25.267,25.267,0,0,0,51.964,18.238Zm-34.234-4.73c-2.552-.5-4.606-.249-5.726.934-1.12,1.12-1.369,3.174-.809,5.726a26.328,26.328,0,0,1,3.174-3.8A29.2,29.2,0,0,1,17.731,13.508ZM50.471,58.7c2.552.5,4.606.249,5.726-.934,1.12-1.12,1.369-3.174.809-5.726a26.328,26.328,0,0,1-3.174,3.8A29.2,29.2,0,0,1,50.471,58.7Zm-34.234-4.73A25.267,25.267,0,0,0,34.1,61.372a20.368,20.368,0,0,0,3.361-.249A109.078,109.078,0,0,1,22.088,48.488l-.062-.062A108.841,108.841,0,0,1,9.017,33.176,23.078,23.078,0,0,0,8.83,36.1,25.009,25.009,0,0,0,16.237,53.965Zm7.656-7.407.062.062c8.4,8.216,17.241,14.44,24.71,17.8,7.1,3.237,12.822,3.859,15.5,1.12,2.676-2.676,1.93-8.4-1.432-15.436-.685-1.432-1.494-2.925-2.365-4.419a31.458,31.458,0,0,1-1.494,3.3c1.556,4.606,1.432,8.4-.809,10.644-2.739,2.8-7.9,2.427-14.129-.373C38.147,56.642,31.3,51.849,24.827,45.5S13.436,32.429,10.7,26.641c-2.925-6.162-3.361-11.328-.622-14.067,2.178-2.241,5.975-2.427,10.644-1a31.457,31.457,0,0,1,3.3-1.494c-1.556-.871-3.05-1.618-4.481-2.3-7.1-3.237-12.822-3.859-15.5-1.12C1.423,9.337,2.17,15.064,5.531,22.1,9.017,29.5,15.428,38.28,23.893,46.558Z" transform="translate(0 -2.338)" stroke="#000" stroke-width="1"/>
      </g>
    </g>
    <g id="ufo_1_" data-name="ufo (1)" transform="translate(1805.352 231.973) rotate(161)" opacity="0.513">
      <g id="Group_79" data-name="Group 79" transform="translate(30.254 0)">
        <g id="Group_78" data-name="Group 78">
          <path id="Path_170" data-name="Path 170" d="M1.777,32.2c-.6,0-1.188.062-1.777.116V0H3.554V32.314C2.965,32.26,2.377,32.2,1.777,32.2Z"/>
        </g>
      </g>
      <g id="Group_85" data-name="Group 85" transform="translate(7.154 37.606)">
        <g id="Group_84" data-name="Group 84">
          <path id="Path_173" data-name="Path 173" d="M39.015,19.429a14.215,14.215,0,0,1-28.276,0C4.255,17.5,0,14.3,0,10.661,0,4.773,11.138,0,24.877,0S49.753,4.773,49.753,10.661C49.753,14.3,45.5,17.5,39.015,19.429ZM9.773,7.108a2.665,2.665,0,1,0,2.665,2.665A2.665,2.665,0,0,0,9.773,7.108ZM20.058,18.551c.324.53,1.446.434,2.506-.215s1.656-1.6,1.332-2.133-1.446-.434-2.506.215S19.734,18.021,20.058,18.551Zm4.819-15a2.665,2.665,0,1,0,2.665,2.665A2.665,2.665,0,0,0,24.877,3.554Zm3.478,12.864c-1.06-.648-2.181-.745-2.506-.215s.272,1.485,1.332,2.133,2.181.745,2.506.215S29.414,17.066,28.355,16.417Zm7.184.393h0a14.669,14.669,0,0,0-5.622-2.131,10.331,10.331,0,0,1,1.094,4.431c.016,4.943-3.99,6.171-6.134,6.171s-6.159-1.228-6.143-6.171a10.328,10.328,0,0,1,1.093-4.429,14.656,14.656,0,0,0-5.611,2.129v1.142a10.661,10.661,0,1,0,21.323,0V16.811Zm4.442-9.7a2.665,2.665,0,1,0,2.665,2.665A2.665,2.665,0,0,0,39.98,7.108Z"/>
        </g>
      </g>
      <g id="Group_90" data-name="Group 90" transform="matrix(0.899, -0.438, 0.438, 0.899, 0, 6.793)">
        <path id="Path_170-2" data-name="Path 170" d="M1.777,32.2c-.6,0-1.188.062-1.777.116V0H3.554V32.314C2.965,32.26,2.377,32.2,1.777,32.2Z" transform="translate(0)"/>
      </g>
      <g id="Group_91" data-name="Group 91" transform="matrix(-0.899, -0.438, 0.438, -0.899, 49.894, 35.836)">
        <path id="Path_170-3" data-name="Path 170" d="M1.777.116C1.177.116.59.054,0,0V32.314H3.554V0C2.965.054,2.377.116,1.777.116Z" transform="translate(0)"/>
      </g>
    </g>
  </g>
</svg>
