<svg xmlns="http://www.w3.org/2000/svg" width="950.623" height="950.624" viewBox="0 0 950.623 950.624">
  <g id="Group_242" data-name="Group 242" transform="translate(851.34 365.286)">
    <circle id="Ellipse_49" data-name="Ellipse 49" cx="475" cy="475" r="475" transform="translate(-851 -365)" fill="#faec3c"/>
    <path id="Intersection_17" data-name="Intersection 17" d="M-18596.281-12257.23l-471.424-471.423,471.424,471.423Zm-471.02-495.057,494.652,494.653Zm446.148,494.232-445.729-445.729,445.729,445.729Zm-444.678-516.806,515.756,515.755Zm418.352,514.521-417.117-417.118,417.117,417.118Zm-415.93-536.136,534.947,534.948Zm387.8,532.052-384.908-384.909,384.908,384.909Zm-384.525-552.818,552.436,552.437Zm4.057-19.982,568.359,568.361Zm350.029,566.4-348.072-348.074,348.072,348.074Zm-345.252-585.67,582.85,582.851Zm5.441-18.6,596.008,596.009Zm306.219,594.716-304.926-304.927,304.926,304.927Zm-300.156-612.694,607.924,607.925Zm6.65-17.395,618.67,618.669Zm255.111,615.74-252.184-252.184,252.184,252.184Zm-247.908-632.574,628.3,628.3Zm7.734-16.311,636.877,636.876Zm8.238-15.8,644.436,644.436Zm184.664,641.447-181.676-181.677,181.676,181.677Zm-175.934-656.764,651.021,651.021Zm9.2-14.839,656.662,656.657Zm9.662-14.38,661.377,661.377Zm10.113-13.933,665.2,665.2Zm10.553-13.487,668.129,668.134Zm10.988-13.054,670.2,670.2Zm39.643,664.728-34.174-34.174,34.174,34.174Zm-28.225-677.35,671.4,671.4Zm11.848-12.193,671.746,671.746Zm12.275-11.767,671.236,671.238Zm12.7-11.337,669.871,669.871Zm13.137-10.908,667.643,667.642Zm13.568-10.468,664.541,664.541Zm14.018-10.028,660.553,660.552Zm14.467-9.575,655.66,655.664Zm14.928-9.113,649.846,649.847Zm15.4-8.637,643.078,643.079Zm15.895-8.146,635.33,635.329Zm16.406-7.635,626.559,626.558Zm16.939-7.1,616.719,616.72Zm17.5-6.541,605.758,605.757Zm18.09-5.947,593.615,593.615Zm18.727-5.32,580.207,580.209Zm19.395-4.643,565.457,565.451Zm20.127-3.916,549.246,549.245Zm20.924-3.123,531.443,531.444Zm21.791-2.249,511.9,511.905Zm22.762-1.279,490.42,490.419Zm23.855-.185,466.748,466.751Zm25.123,1.08,440.545,440.546Zm26.637,2.6,411.313,411.312Zm28.518,4.476,378.318,378.319Zm30.961,6.916,340.441,340.441Zm34.336,10.3,295.807,295.806Zm39.627,15.581,240.6,240.6Zm50.063,26.025,164.51,164.511Z" transform="translate(18216.719 12842.215)" fill="none" stroke="#707070" stroke-width="1" opacity="0.119"/>
  </g>
</svg>
