<svg xmlns="http://www.w3.org/2000/svg" width="1906" height="1007" viewBox="0 0 1906 1007">
  <g id="Group_104" data-name="Group 104" transform="translate(-14 -6)" opacity="0.566">
    <text id="_" data-name="*" transform="translate(253 865)" fill="#1139e3" font-size="32" font-family="RealHeadPro-Medium, Real Head Pro" font-weight="500" letter-spacing="-0.008em" opacity="0.457"><tspan x="-7.504" y="33">*</tspan></text>
    <text id="_2" data-name="*" transform="translate(809 764)" fill="#1139e3" font-size="32" font-family="RealHeadPro-Medium, Real Head Pro" font-weight="500" letter-spacing="-0.008em" opacity="0.457"><tspan x="-7.504" y="33">*</tspan></text>
    <text id="_3" data-name="*" transform="translate(1062 125)" fill="#1139e3" font-size="32" font-family="RealHeadPro-Medium, Real Head Pro" font-weight="500" letter-spacing="-0.008em" opacity="0.457"><tspan x="-7.504" y="33">*</tspan></text>
    <text id="_4" data-name="*" transform="translate(1690 491)" fill="#1139e3" font-size="32" font-family="ProximaNova-Extrabld, Proxima Nova" letter-spacing="-0.008em" opacity="0.457"><tspan x="-5.712" y="29">*</tspan></text>
    <text id="_5" data-name="*" transform="translate(1498 563)" fill="#1139e3" font-size="32" font-family="ProximaNova-Extrabld, Proxima Nova" letter-spacing="-0.008em" opacity="0.457"><tspan x="-5.712" y="29">*</tspan></text>
    <text id="_6" data-name="*" transform="translate(1574 125)" fill="#1139e3" font-size="32" font-family="ProximaNova-Extrabld, Proxima Nova" letter-spacing="-0.008em" opacity="0.457"><tspan x="-5.712" y="29">*</tspan></text>
    <text id="_7" data-name="*" transform="translate(1515 344)" fill="#1139e3" font-size="32" font-family="ProximaNova-Extrabld, Proxima Nova" letter-spacing="-0.008em" opacity="0.457"><tspan x="-5.712" y="29">*</tspan></text>
    <text id="_8" data-name="*" transform="translate(1342 96)" fill="#1139e3" font-size="32" font-family="ProximaNova-Extrabld, Proxima Nova" letter-spacing="-0.008em" opacity="0.457"><tspan x="-5.712" y="29">*</tspan></text>
    <text id="_9" data-name="*" transform="translate(1397 6)" fill="#1139e3" font-size="32" font-family="ProximaNova-Extrabld, Proxima Nova" letter-spacing="-0.008em" opacity="0.457"><tspan x="-5.712" y="29">*</tspan></text>
    <text id="_10" data-name="*" transform="translate(14 969)" fill="#1139e3" font-size="32" font-family="RealHeadPro-Medium, Real Head Pro" font-weight="500" letter-spacing="-0.008em" opacity="0.457"><tspan x="-7.504" y="33">*</tspan></text>
    <text id="_11" data-name="*" transform="translate(1819 742)" fill="#1139e3" font-size="32" font-family="RealHeadPro-Medium, Real Head Pro" font-weight="500" letter-spacing="-0.008em" opacity="0.457"><tspan x="-7.504" y="33">*</tspan></text>
    <g id="saturn" transform="translate(1599.211 409.662)" opacity="0.497">
      <g id="Group_97" data-name="Group 97" transform="translate(0 2.338)">
        <path id="Path_178" data-name="Path 178" d="M48.51,4.189c-2.517-2.7-7.506-2.334-13.5.366A49.2,49.2,0,0,0,29.973,7.21a21.331,21.331,0,0,0-4.852-.6,20.519,20.519,0,0,0-20,25.036A39.086,39.086,0,0,0,2.374,36.64c-2.792,5.95-3.25,10.939-.687,13.548,2.563,2.655,7.6,2.288,13.548-.412a44.387,44.387,0,0,0,4.989-2.655,21.331,21.331,0,0,0,4.852.6,20.477,20.477,0,0,0,20-24.99,39.086,39.086,0,0,0,2.746-4.989C50.615,11.787,51.073,6.8,48.51,4.189ZM11.986,14.03A18.58,18.58,0,0,1,25.122,8.583,18.39,18.39,0,0,1,38.257,14.03a17.1,17.1,0,0,1,2.929,3.845c-.183.5-.412,1.007-.641,1.51A50.586,50.586,0,0,1,30.568,32.7a49.735,49.735,0,0,1-13.5,9.749c-.549.229-1.053.458-1.556.641A18.492,18.492,0,0,1,6.539,27.166,18.58,18.58,0,0,1,11.986,14.03Zm25.173-3.479c1.877-.366,3.387-.183,4.211.687.824.824,1.007,2.334.6,4.211a19.36,19.36,0,0,0-2.334-2.792A21.47,21.47,0,0,0,37.159,10.551ZM13.084,43.78c-1.877.366-3.387.183-4.211-.687-.824-.824-1.007-2.334-.6-4.211a19.361,19.361,0,0,0,2.334,2.792A21.472,21.472,0,0,0,13.084,43.78ZM38.257,40.3a18.58,18.58,0,0,1-13.136,5.447,14.977,14.977,0,0,1-2.472-.183,80.209,80.209,0,0,0,11.305-9.291L34,36.228a80.035,80.035,0,0,0,9.566-11.214,16.972,16.972,0,0,1,.137,2.151A18.39,18.39,0,0,1,38.257,40.3Zm-5.63-5.447-.046.046C26.4,40.943,19.9,45.52,14.411,47.991c-5.218,2.38-9.429,2.838-11.4.824C1.047,46.847,1.6,42.636,4.067,37.464c.5-1.053,1.1-2.151,1.739-3.25a23.133,23.133,0,0,0,1.1,2.426c-1.144,3.387-1.053,6.179.6,7.827,2.014,2.06,5.813,1.785,10.39-.275A51.623,51.623,0,0,0,31.941,34.077a51.3,51.3,0,0,0,10.39-13.868c2.151-4.531,2.472-8.33.458-10.344-1.6-1.648-4.394-1.785-7.827-.732a23.132,23.132,0,0,0-2.426-1.1c1.144-.641,2.243-1.19,3.3-1.693,5.218-2.38,9.429-2.838,11.4-.824,1.922,1.968,1.373,6.179-1.1,11.351C43.567,22.314,38.853,28.768,32.628,34.855Z" transform="translate(0 -2.338)" fill="#1139e3" stroke="#1039e2" stroke-width="1"/>
      </g>
    </g>
    <g id="ufo_1_" data-name="ufo (1)" transform="translate(632.282 869.813) rotate(-8)" opacity="0.513">
      <g id="Group_79" data-name="Group 79" transform="translate(15.548 44.633)">
        <g id="Group_78" data-name="Group 78">
          <path id="Path_170" data-name="Path 170" d="M209.777,344.6c-.6,0-1.188-.062-1.777-.116V376.8h3.554V344.482C210.965,344.536,210.377,344.6,209.777,344.6Z" transform="translate(-208 -344.482)" fill="#1139e3"/>
        </g>
      </g>
      <g id="Group_85" data-name="Group 85" transform="translate(-7.552 7.172)">
        <g id="Group_84" data-name="Group 84">
          <path id="Path_173" data-name="Path 173" d="M39.015,19.912a14.215,14.215,0,0,0-28.276,0C4.255,21.836,0,25.043,0,28.679,0,34.567,11.138,39.34,24.877,39.34s24.877-4.773,24.877-10.661C49.753,25.043,45.5,21.836,39.015,19.912ZM9.773,32.233a2.665,2.665,0,1,1,2.665-2.665A2.665,2.665,0,0,1,9.773,32.233ZM20.058,20.79c.324-.53,1.446-.434,2.506.215s1.656,1.6,1.332,2.133-1.446.434-2.506-.215S19.734,21.319,20.058,20.79Zm4.819,15a2.665,2.665,0,1,1,2.665-2.665A2.665,2.665,0,0,1,24.877,35.787Zm3.478-12.864c-1.06.648-2.181.745-2.506.215s.272-1.485,1.332-2.133,2.181-.745,2.506-.215S29.414,22.275,28.355,22.923Zm7.184-.393h0a14.669,14.669,0,0,1-5.622,2.131A10.331,10.331,0,0,0,31.01,20.23c.016-4.943-3.99-6.171-6.134-6.171s-6.159,1.228-6.143,6.171a10.328,10.328,0,0,0,1.093,4.429,14.656,14.656,0,0,1-5.611-2.129V21.387a10.661,10.661,0,1,1,21.323,0V22.53Zm4.442,9.7a2.665,2.665,0,1,1,2.665-2.665A2.665,2.665,0,0,1,39.98,32.233Z" transform="translate(0 -7.172)" fill="#1139e3"/>
        </g>
      </g>
      <g id="Group_90" data-name="Group 90" transform="matrix(0.899, 0.438, -0.438, 0.899, -0.54, 41.11)">
        <path id="Path_170-2" data-name="Path 170" d="M1.777.116C1.177.116.589.054,0,0V32.314H3.554V0C2.965.054,2.377.116,1.777.116Z" transform="translate(0 0)" fill="#1139e3"/>
      </g>
      <g id="Group_91" data-name="Group 91" transform="matrix(-0.899, 0.438, -0.438, -0.899, 49.355, 70.154)">
        <path id="Path_170-3" data-name="Path 170" d="M1.777,32.2c-.6,0-1.188.062-1.777.116V0H3.554V32.314C2.965,32.26,2.377,32.2,1.777,32.2Z" transform="translate(0 0)" fill="#1139e3"/>
      </g>
    </g>
    <text id="_12" data-name="*" transform="translate(1046 601)" fill="#1139e3" font-size="32" font-family="RealHeadPro-Medium, Real Head Pro" font-weight="500" letter-spacing="-0.008em" opacity="0.457"><tspan x="-7.504" y="33">*</tspan></text>
    <text id="_13" data-name="*" transform="translate(1589 865)" fill="#1139e3" font-size="32" font-family="RealHeadPro-Medium, Real Head Pro" font-weight="500" letter-spacing="-0.008em" opacity="0.457"><tspan x="-7.504" y="33">*</tspan></text>
    <text id="_14" data-name="*" transform="translate(692 925)" fill="#1139e3" font-size="32" font-family="RealHeadPro-Medium, Real Head Pro" font-weight="500" letter-spacing="-0.008em" opacity="0.457"><tspan x="-7.504" y="33">*</tspan></text>
  </g>
</svg>
