<svg xmlns="http://www.w3.org/2000/svg" width="457.591" height="685.468" viewBox="0 0 457.591 685.468">
  <g id="Group_292" data-name="Group 292" transform="translate(-169.443 -8598.913)">
    <path id="Path_403" data-name="Path 403" d="M1149.64,6732.169s19.742,33.3-30.939,97.3c-36.2,52.622-27.849,44.991-29.395,96.656" transform="translate(-564.696 2354.349)" fill="none" stroke="#8d8521" stroke-linecap="round" stroke-width="7"/>
    <g id="Group_249" data-name="Group 249" transform="translate(409.461 8883.297)">
      <g id="Group_248" data-name="Group 248" transform="translate(0 0)">
        <path id="Path_378" data-name="Path 378" d="M61.03,190.7a48.532,48.532,0,0,1-41.938-72.809l48.54-84.07A48.532,48.532,0,1,1,151.7,82.332C94.183,182.008,77.825,190.7,61.03,190.7Z" transform="translate(-12.568 -9.519)" fill="none" stroke="#8d8521" stroke-width="7"/>
      </g>
    </g>
    <g id="Group_253" data-name="Group 253" transform="translate(211.096 8622.123)">
      <g id="Group_252" data-name="Group 252">
        <path id="Path_380" data-name="Path 380" d="M57.822,276.792c-16.518,1.811-17.168,7.261-18.255,0L7.379,60.837A52.6,52.6,0,0,1,111.421,45.307L146.3,275C138.866,275.371,65.057,275.732,57.822,276.792Z" transform="translate(-6.805 -0.521)" fill="none" stroke="#8d8521" stroke-width="7"/>
      </g>
    </g>
    <g id="Group_255" data-name="Group 255" transform="translate(347.576 8601.413)">
      <g id="Group_254" data-name="Group 254" transform="translate(1 1)">
        <path id="Path_381" data-name="Path 381" d="M35.716,295.009c-19.28-1.2-25.715,1.29-24.363-5.891L56.907,43.349A52.962,52.962,0,1,1,161.029,62.8l-52.5,262.5c-.685,3.513-3.718-4.344-7.719-10.954C97.8,309.367,84,291.983,35.716,295.009Z" transform="translate(-11.123 -0.02)" fill="none" stroke="#8d8521" stroke-width="7"/>
      </g>
    </g>
    <g id="Group_251" data-name="Group 251" transform="translate(492.059 8958.18)">
      <g id="Group_250" data-name="Group 250" transform="translate(0.001 0)">
        <path id="Path_379" data-name="Path 379" d="M63.62,168.546a48.069,48.069,0,0,1-24.2-6.553v.024a48.585,48.585,0,0,1-17.766-66.3L55.926,36.4a48.543,48.543,0,0,1,84.095,48.515l-34.269,59.315A48.83,48.83,0,0,1,63.62,168.546Z" transform="translate(-15.157 -12.074)" fill="none" stroke="#8d8521" stroke-width="7"/>
      </g>
    </g>
    <path id="Path_405" data-name="Path 405" d="M16492.141,4331.7s-1.965-35.867-4.186-42.712-72.6-106.481-72.6-106.481-26.586-55.432-10.723-102.5,29.781-90.009,29.781-90.009,14.121-37,52.77-39.985,143.025-1.639,143.025-1.639,32.9,3.017,39.234,28.972-13.02,42.947-14.3,44.5c-.668.806-19.92,17.03-42.471,27.864-20.354,9.777-83.281,14.9-83.281,14.9s98.717,83.813,110.2,137.3" transform="translate(-16226.588 4949)" fill="none" stroke="#8d8521" stroke-linecap="round" stroke-width="7"/>
  </g>
</svg>
