<svg xmlns="http://www.w3.org/2000/svg" xmlns:xlink="http://www.w3.org/1999/xlink" width="123.068" height="111.254" viewBox="0 0 123.068 111.254">
  <defs>
    <linearGradient id="linear-gradient" x1="0.5" x2="0.5" y2="1" gradientUnits="objectBoundingBox">
      <stop offset="0" stop-color="#faec3c"/>
      <stop offset="0.778" stop-color="#fdf69e"/>
      <stop offset="1" stop-color="#fff"/>
    </linearGradient>
  </defs>
  <g id="Group_245" data-name="Group 245" transform="translate(-882.279 -9139.164)">
    <path id="Path_1225" data-name="Path 1225" d="M-54.769-15.4h-2.9V-4.8c0,1.936-.572,2.53-2.838,2.53-.4,0-.814-.022-1.21-.044V.176A18.009,18.009,0,0,0-59.5.308c3.652,0,4.73-1.936,4.73-4.862Zm15.972,0h-2.926v9.812c0,2.376-1.056,3.52-3.19,3.52-2.156,0-3.212-1.056-3.212-3.52V-15.4h-2.9v9.878c0,2.992,1.452,5.94,6.094,5.94,4.532,0,6.138-2.9,6.138-5.94ZM-29.425.418c4.07,0,6.38-1.936,6.38-4.818,0-2.706-1.65-4.114-5.434-4.752-3.3-.572-3.916-1.122-3.916-2.244,0-1.232,1.078-1.936,2.86-1.936a4.958,4.958,0,0,1,4.2,1.936l2.068-1.628A7.692,7.692,0,0,0-29.557-15.8c-3.454,0-5.808,1.738-5.808,4.466,0,2.6,1.738,3.938,5.214,4.554,3.476.572,4.092,1.232,4.092,2.552,0,1.342-1.43,2.156-3.3,2.156a6.123,6.123,0,0,1-4.818-2.2l-1.958,1.76A8.493,8.493,0,0,0-29.425.418ZM-9.625-15.4H-21.351v2.486h4.4V0h2.926V-12.914h4.4ZM8.063,0h3.146L6.149-15.4H2.431L-2.607,0H.385l.77-2.574H7.293ZM4.235-13.09,6.589-4.95H1.837ZM24.915.418c4.07,0,6.38-1.936,6.38-4.818,0-2.706-1.65-4.114-5.434-4.752-3.3-.572-3.916-1.122-3.916-2.244,0-1.232,1.078-1.936,2.86-1.936a4.958,4.958,0,0,1,4.2,1.936l2.068-1.628A7.692,7.692,0,0,0,24.783-15.8c-3.454,0-5.808,1.738-5.808,4.466,0,2.6,1.738,3.938,5.214,4.554,3.476.572,4.092,1.232,4.092,2.552,0,1.342-1.43,2.156-3.3,2.156a6.123,6.123,0,0,1-4.818-2.2L18.2-2.508A8.493,8.493,0,0,0,24.915.418ZM44.363-15.4H34.375V0H44.561V-2.464H37.279v-4.18H43.9v-2.42H37.279v-3.872h7.084Zm10.142-.374c-3.7,0-7.282,2.31-7.282,8.052,0,6.006,3.806,8.1,7.26,8.1A6.986,6.986,0,0,0,61.347-4.29l-2.794-.9a3.936,3.936,0,0,1-4.026,3.058c-2.86,0-4.29-2.156-4.29-5.61,0-3.476,1.628-5.522,4.268-5.522a3.676,3.676,0,0,1,3.7,2.706l2.86-.792A6.581,6.581,0,0,0,54.505-15.774Z" transform="translate(944 9250)" fill="#3972f5"/>
    <path id="Path_376" data-name="Path 376" d="M16257,2645l22.392-44.328h27.633l20.558,45.059s-18.588,8.831-36.233,8.648S16257,2645,16257,2645Z" transform="translate(-15348 6567)" fill="url(#linear-gradient)"/>
    <g id="ufo_1_" data-name="ufo (1)" transform="translate(926.705 9134.992)">
      <g id="Group_79" data-name="Group 79" transform="translate(15.548 44.633)" opacity="0.408">
        <g id="Group_78" data-name="Group 78">
          <path id="Path_170" data-name="Path 170" d="M209.275,344.6a10.1,10.1,0,0,1-1.275-.116V376.8h2.55V344.482A10.093,10.093,0,0,1,209.275,344.6Z" transform="translate(-208 -344.482)"/>
        </g>
      </g>
      <g id="Group_85" data-name="Group 85" transform="translate(-7.552 4.172)">
        <g id="Group_84" data-name="Group 84">
          <path id="Path_173" data-name="Path 173" d="M39.015,19.912a14.215,14.215,0,0,0-28.276,0C4.255,21.836,0,25.043,0,28.679,0,34.567,11.138,39.34,24.877,39.34s24.877-4.773,24.877-10.661C49.753,25.043,45.5,21.836,39.015,19.912ZM9.773,32.233a2.665,2.665,0,1,1,2.665-2.665A2.665,2.665,0,0,1,9.773,32.233ZM20.058,20.79c.324-.53,1.446-.434,2.506.215s1.656,1.6,1.332,2.133-1.446.434-2.506-.215S19.734,21.319,20.058,20.79Zm4.819,15a2.665,2.665,0,1,1,2.665-2.665A2.665,2.665,0,0,1,24.877,35.787Zm3.478-12.864c-1.06.648-2.181.745-2.506.215s.272-1.485,1.332-2.133,2.181-.745,2.506-.215S29.414,22.275,28.355,22.923Zm7.184-.393h0a14.669,14.669,0,0,1-5.622,2.131A10.331,10.331,0,0,0,31.01,20.23c.016-4.943-3.99-6.171-6.134-6.171s-6.159,1.228-6.143,6.171a10.328,10.328,0,0,0,1.093,4.429,14.656,14.656,0,0,1-5.611-2.129V21.387a10.661,10.661,0,1,1,21.323,0V22.53Zm4.442,9.7a2.665,2.665,0,1,1,2.665-2.665A2.665,2.665,0,0,1,39.98,32.233Z" transform="translate(0 -7.172)" fill="#3972f5"/>
        </g>
      </g>
      <g id="Group_90" data-name="Group 90" transform="matrix(0.899, 0.438, -0.438, 0.899, -0.54, 41.11)">
        <path id="Path_170-2" data-name="Path 170" d="M1.275.116A10.1,10.1,0,0,1,0,0V32.314H2.55V0A10.1,10.1,0,0,1,1.275.116Z" transform="translate(0 0)" opacity="0.405"/>
      </g>
      <g id="Group_91" data-name="Group 91" transform="matrix(-0.899, 0.438, -0.438, -0.899, 49.355, 70.154)" opacity="0.408">
        <path id="Path_170-3" data-name="Path 170" d="M1.275,32.2A10.1,10.1,0,0,0,0,32.314V0H2.55V32.314A10.1,10.1,0,0,0,1.275,32.2Z" transform="translate(0 0)"/>
      </g>
    </g>
  </g>
</svg>
