<svg xmlns="http://www.w3.org/2000/svg" xmlns:xlink="http://www.w3.org/1999/xlink" width="124" height="118.836" viewBox="0 0 124 118.836">
  <defs>
    <linearGradient id="linear-gradient" x1="0.5" x2="0.5" y2="1" gradientUnits="objectBoundingBox">
      <stop offset="0" stop-color="#faec3c"/>
      <stop offset="0.778" stop-color="#fdf69e"/>
      <stop offset="1" stop-color="#fff"/>
    </linearGradient>
  </defs>
  <g id="Group_245" data-name="Group 245" transform="translate(-882 -9139.164)">
    <text id="JUST_A_SEC" data-name="JUST A SEC" transform="translate(944 9250)" fill="#1139e3" font-size="22" font-family="RealHeadPro-Medium, Real Head Pro" font-weight="500" letter-spacing="0.05em"><tspan x="-61.985" y="0">JUST A SEC</tspan></text>
    <path id="Path_376" data-name="Path 376" d="M16257,2645l22.392-44.328h27.633l20.558,45.059s-18.588,8.831-36.233,8.648S16257,2645,16257,2645Z" transform="translate(-15348 6567)" fill="url(#linear-gradient)"/>
    <g id="ufo_1_" data-name="ufo (1)" transform="translate(926.705 9134.992)">
      <g id="Group_79" data-name="Group 79" transform="translate(15.548 44.633)" opacity="0.408">
        <g id="Group_78" data-name="Group 78">
          <path id="Path_170" data-name="Path 170" d="M209.275,344.6a10.1,10.1,0,0,1-1.275-.116V376.8h2.55V344.482A10.093,10.093,0,0,1,209.275,344.6Z" transform="translate(-208 -344.482)"/>
        </g>
      </g>
      <g id="Group_85" data-name="Group 85" transform="translate(-7.552 4.172)">
        <g id="Group_84" data-name="Group 84">
          <path id="Path_173" data-name="Path 173" d="M39.015,19.912a14.215,14.215,0,0,0-28.276,0C4.255,21.836,0,25.043,0,28.679,0,34.567,11.138,39.34,24.877,39.34s24.877-4.773,24.877-10.661C49.753,25.043,45.5,21.836,39.015,19.912ZM9.773,32.233a2.665,2.665,0,1,1,2.665-2.665A2.665,2.665,0,0,1,9.773,32.233ZM20.058,20.79c.324-.53,1.446-.434,2.506.215s1.656,1.6,1.332,2.133-1.446.434-2.506-.215S19.734,21.319,20.058,20.79Zm4.819,15a2.665,2.665,0,1,1,2.665-2.665A2.665,2.665,0,0,1,24.877,35.787Zm3.478-12.864c-1.06.648-2.181.745-2.506.215s.272-1.485,1.332-2.133,2.181-.745,2.506-.215S29.414,22.275,28.355,22.923Zm7.184-.393h0a14.669,14.669,0,0,1-5.622,2.131A10.331,10.331,0,0,0,31.01,20.23c.016-4.943-3.99-6.171-6.134-6.171s-6.159,1.228-6.143,6.171a10.328,10.328,0,0,0,1.093,4.429,14.656,14.656,0,0,1-5.611-2.129V21.387a10.661,10.661,0,1,1,21.323,0V22.53Zm4.442,9.7a2.665,2.665,0,1,1,2.665-2.665A2.665,2.665,0,0,1,39.98,32.233Z" transform="translate(0 -7.172)" fill="#041d88"/>
        </g>
      </g>
      <g id="Group_90" data-name="Group 90" transform="matrix(0.899, 0.438, -0.438, 0.899, -0.54, 41.11)">
        <path id="Path_170-2" data-name="Path 170" d="M1.275.116A10.1,10.1,0,0,1,0,0V32.314H2.55V0A10.1,10.1,0,0,1,1.275.116Z" transform="translate(0 0)" opacity="0.405"/>
      </g>
      <g id="Group_91" data-name="Group 91" transform="matrix(-0.899, 0.438, -0.438, -0.899, 49.355, 70.154)" opacity="0.408">
        <path id="Path_170-3" data-name="Path 170" d="M1.275,32.2A10.1,10.1,0,0,0,0,32.314V0H2.55V32.314A10.1,10.1,0,0,0,1.275,32.2Z" transform="translate(0 0)"/>
      </g>
    </g>
  </g>
</svg>
