<svg xmlns="http://www.w3.org/2000/svg" width="122.846" height="203.284" viewBox="0 0 122.846 203.284">
  <g id="Group_260" data-name="Group 260" transform="translate(-718.441 -6236.551)">
    <g id="Group_259" data-name="Group 259" transform="translate(718.441 6236.551)">
      <g id="Group_247" data-name="Group 247" transform="translate(0 82.864)">
        <g id="Group_246" data-name="Group 246">
          <path id="Path_377" data-name="Path 377" d="M33.152,116.737a3.692,3.692,0,0,1-3.946-3.632v-6.857a11.855,11.855,0,0,0-2.138-6.794L11.413,77.1a35.652,35.652,0,0,1-4.6-31.6l7.859-23.578A16.649,16.649,0,0,1,30.485,10.521H68.047a10.738,10.738,0,0,1,7.591,18.331A44.868,44.868,0,0,1,48.856,41.793,77.033,77.033,0,0,1,72.394,76.348a3.944,3.944,0,1,1-7.481,2.5A69.075,69.075,0,0,0,37.808,43.371L34.9,41.43A3.945,3.945,0,0,1,37.09,34.2h6.589A37.035,37.035,0,0,0,70.051,23.281a2.853,2.853,0,0,0-2.012-4.869H30.477a8.783,8.783,0,0,0-8.333,6.005L14.293,48A27.733,27.733,0,0,0,17.875,72.56L33.531,94.923A19.685,19.685,0,0,1,37.1,106.247V113.1a3.692,3.692,0,0,1-3.946,3.632Z" transform="translate(-5.002 -10.521)" fill="#4553ff"/>
        </g>
      </g>
      <g id="Group_249" data-name="Group 249" transform="translate(59.709 74.956)">
        <g id="Group_248" data-name="Group 248">
          <path id="Path_378" data-name="Path 378" d="M28.325,68.427A15.78,15.78,0,0,1,14.689,44.753L30.471,17.419A15.78,15.78,0,1,1,57.806,33.193L42.024,60.528a15.773,15.773,0,0,1-13.7,7.9Zm-3.914-8.933A7.942,7.942,0,0,0,35.2,56.606L50.98,29.271A7.9,7.9,0,0,0,42.1,17.7a7.815,7.815,0,0,0-4.79,3.685L21.531,48.715a7.895,7.895,0,0,0,2.88,10.779Z" transform="translate(-12.568 -9.519)" fill="#4553ff"/>
        </g>
      </g>
      <g id="Group_251" data-name="Group 251" transform="translate(80.138 95.117)">
        <g id="Group_250" data-name="Group 250">
          <path id="Path_379" data-name="Path 379" d="M30.914,62.949a15.629,15.629,0,0,1-7.867-2.131v.008a15.8,15.8,0,0,1-5.776-21.558L28.413,19.982A15.783,15.783,0,0,1,55.755,35.757L44.613,55.042a15.876,15.876,0,0,1-13.7,7.907ZM42.08,19.974a8.26,8.26,0,0,0-2.044.268,7.815,7.815,0,0,0-4.79,3.685L24.1,43.214a7.892,7.892,0,0,0,8.877,11.568,7.8,7.8,0,0,0,4.79-3.677L48.914,31.819A7.9,7.9,0,0,0,42.08,19.974Z" transform="translate(-15.157 -12.074)" fill="#4553ff"/>
        </g>
      </g>
      <g id="Group_253" data-name="Group 253" transform="translate(14.234 3.953)">
        <g id="Group_252" data-name="Group 252">
          <path id="Path_380" data-name="Path 380" d="M44.387,87.322a3.943,3.943,0,0,1-3.9-3.362L30.152,15.025a7.771,7.771,0,0,0-15.372,2.3l9.682,65.306a3.944,3.944,0,0,1-7.8,1.152l-9.682-65.3a15.662,15.662,0,0,1,30.98-4.624L48.3,82.785a3.94,3.94,0,0,1-3.314,4.482A3.142,3.142,0,0,1,44.387,87.322Z" transform="translate(-6.805 -0.521)" fill="#4553ff"/>
        </g>
      </g>
      <g id="Group_255" data-name="Group 255" transform="translate(48.307 0)">
        <g id="Group_254" data-name="Group 254">
          <path id="Path_381" data-name="Path 381" d="M37.39,98.666a3.854,3.854,0,0,1-.734-.071,3.936,3.936,0,0,1-3.141-4.608L48,17.254a7.879,7.879,0,1,0-15.49-2.9L18.948,87.539A3.944,3.944,0,0,1,11.192,86.1L24.756,12.922a15.77,15.77,0,1,1,31,5.792L41.272,95.446a3.963,3.963,0,0,1-3.882,3.22Z" transform="translate(-11.123 -0.02)" fill="#4553ff"/>
        </g>
      </g>
      <g id="Group_257" data-name="Group 257" transform="translate(93.26 120.026)">
        <g id="Group_256" data-name="Group 256">
          <path id="Path_382" data-name="Path 382" d="M20.766,84.589a3.947,3.947,0,0,1-3.946-3.946V74.489a19.771,19.771,0,0,1,4.545-12.626l2.628-3.109a43.281,43.281,0,0,0,9.6-33.908l-.71-5.137a3.943,3.943,0,1,1,7.812-1.073l.71,5.121A51.188,51.188,0,0,1,30.022,63.844L27.4,66.937a11.844,11.844,0,0,0-2.691,7.552v6.147A3.949,3.949,0,0,1,20.766,84.589Z" transform="translate(-16.82 -15.23)" fill="#4553ff"/>
        </g>
      </g>
    </g>
    <path id="Path_386" data-name="Path 386" d="M19907.852,4723.925s32.7,29.607,69.9,0" transform="translate(-19162 1699.176)" fill="none" stroke="#4553ff" stroke-linecap="round" stroke-width="7"/>
  </g>
</svg>
